<?xml version="1.0" encoding="utf-8"?>
<!-- Generator: Adobe Illustrator 18.0.0, SVG Export Plug-In . SVG Version: 6.00 Build 0)  -->
<!DOCTYPE svg PUBLIC "-//W3C//DTD SVG 1.1//EN" "http://www.w3.org/Graphics/SVG/1.1/DTD/svg11.dtd">
<svg version="1.1" id="Layer_1" xmlns="http://www.w3.org/2000/svg" xmlns:xlink="http://www.w3.org/1999/xlink" x="0px" y="0px"
	 viewBox="0 0 111 111" enable-background="new 0 0 111 111" xml:space="preserve">
<g>
	<path fill="#0E5C67" d="M110.5,55.5c0,30.4-24.6,55-55,55c-30.4,0-55-24.6-55-55c0-30.4,24.6-55,55-55
		C85.9,0.5,110.5,25.1,110.5,55.5"/>
	<path fill="#FFFFFF" d="M17.5,57.7v0.5c0,2,0.6,2.8,2.3,2.8c1.2,0,2.1-0.8,2.1-2.2c0-1.5-1.1-2.2-2.9-3.3c-1.7-1.1-2.9-1.9-3.5-2.4
		c-1.3-1.2-1.9-2.2-1.9-4.1c0-3.3,2.4-5.5,6.3-5.5c4,0,6,1.9,6,5.5v0.5h-4.1v-0.1c0-1.9-0.7-2.8-2-2.8c-1.2,0-2,0.8-2,2
		c0,1.9,2,2.7,4.8,4.5c2.4,1.5,3.5,2.8,3.5,5.1c0,3.8-2.3,5.8-6.7,5.8c-4.2,0-6.1-1.8-6.1-5.8c0-0.2,0-0.4,0-0.7L17.5,57.7
		L17.5,57.7z"/>
	<path fill="#FFFFFF" d="M38.8,58.7c0,3.6-1.9,5.4-5.6,5.4c-4.6,0-5.7-2.2-5.7-7.5c0-4.8,1.5-7,5.7-7c3.8,0,5.6,1.8,5.6,5.6v2.1
		h-7.4v1.4c0,2,0.5,3,1.7,3c1.2,0,1.8-0.9,1.8-2.8v-0.2L38.8,58.7L38.8,58.7z M34.9,55.1V54c0-1.3-0.6-2.1-1.7-2.1
		c-1.2,0-1.8,0.9-1.8,2.8v0.5L34.9,55.1L34.9,55.1z"/>
	<path fill="#FFFFFF" d="M40.6,53.3c0-2.4,1.9-3.7,5.4-3.7c3.5,0,5.1,1.2,5.1,4v6.9c0,1.2,0.1,2.3,0.3,3.3H48l-0.3-1.6
		c-0.7,1-2.2,1.7-3.7,1.7c-2.3,0-3.7-1.7-3.7-4.3c0-3.2,1.9-4.5,6.2-4.7l1.2-0.1v-0.6c0-1.8-0.4-2.6-1.5-2.6c-1.2,0-1.9,0.7-1.9,2
		h-3.6L40.6,53.3L40.6,53.3z M43.9,59.5c0,1.4,0.6,2.2,1.5,2.2c1.4,0,2.2-1.2,2.2-3.5v-1.2C44.9,56.9,43.9,57.5,43.9,59.5"/>
	<path fill="#FFFFFF" d="M56.8,43.9v7.2c0.8-1,1.8-1.5,3.1-1.5c3,0,4,2.3,4,7c0,2.6-0.1,4.5-0.8,5.8c-0.6,1.1-1.8,1.7-3.2,1.7
		c-1.4,0-2.5-0.6-3.1-1.7l-0.1,1.3h-3.8c0.1-1.2,0.1-2.3,0.1-3.1V43.9H56.8z M56.8,58.2c0,2.4,0.3,3.6,1.7,3.6
		c1.5,0,1.6-1.5,1.6-4.8v-0.3c0-3.1-0.2-4.6-1.6-4.6c-1.1,0-1.6,1.1-1.6,3.2V58.2z"/>
	<path fill="#FFFFFF" d="M76.8,56.6c0,5.4-1.1,7.5-5.7,7.5s-5.8-2.2-5.8-7.5c0-4.9,1.5-7,5.8-7C75.3,49.6,76.8,51.8,76.8,56.6
		 M71.1,61.7c1.5,0,1.8-1.5,1.8-5c0-3.3-0.3-4.7-1.9-4.7c-1.6,0-1.8,1.4-1.8,4.7C69.2,60.2,69.5,61.7,71.1,61.7"/>
	<path fill="#FFFFFF" d="M78.2,49.9h3.4l0.2,1.8c0.5-1.4,1.7-2.1,3.4-2.1h0.2V53h-0.4c-2.2,0-3,1-3,3.4v7.5h-3.9L78.2,49.9
		L78.2,49.9z"/>
	<path fill="#FFFFFF" d="M87,63.8V52.4c0-0.7,0-1.6-0.1-2.5h3.9l0.1,1.4c0.6-1.2,1.7-1.8,3.1-1.8c2.4,0,3.8,1.3,3.8,3.6v10.6h-3.9
		v-9.5c0-1.5-0.2-2.4-1.3-2.4c-1,0-1.7,0.7-1.7,2v9.9C90.9,63.8,87,63.8,87,63.8z"/>
</g>
</svg>
